<?xml version="1.0" standalone="no"?><!DOCTYPE svg PUBLIC "-//W3C//DTD SVG 1.1//EN" "http://www.w3.org/Graphics/SVG/1.1/DTD/svg11.dtd"><svg t="1702187684735" class="icon" viewBox="0 0 1024 1024" version="1.1" xmlns="http://www.w3.org/2000/svg" p-id="9448" xmlns:xlink="http://www.w3.org/1999/xlink" width="200" height="200"><path d="M154.6 260.3h714.7c17.2 0 31.1 13.9 31.1 31.1v509c0 17.2-13.9 31.1-31.1 31.1H154.6c-17.2 0-31.1-13.9-31.1-31.1v-509c0.1-17.2 14-31.1 31.1-31.1z" fill="#FBD1AA" p-id="9449"></path><path d="M900.4 291.4v509c0 17.2-13.9 31.1-31.1 31.1h-63c17.2 0 31.1-13.9 31.1-31.1v-509c0-17.2-13.9-31.1-31.1-31.1h63c17.2 0 31.1 13.9 31.1 31.1z" fill="#F7BD81" p-id="9450"></path><path d="M185.7 322.5h652.6v446.9H185.7V322.5z" fill="#414649" p-id="9451"></path><path d="M185.7 322.5h652.6v446.9H185.7V322.5z" fill="#889CA9" p-id="9452"></path><path d="M279.6 703.9h97.2c16.1 0 29.1 13 29.1 29.1v36.4H250.5V733c0-16.1 13-29.1 29.1-29.1z" fill="#50E6CC" p-id="9453"></path><path d="M775.3 322.5h63v446.9h-63z" fill="#73859E" p-id="9454"></path><path d="M405.9 732.9v36.4h-50.1v-36.4c0-16-13-29.1-29.1-29.1h50.1c16.1 0.1 29.1 13.1 29.1 29.1z" fill="#45DABD" p-id="9455"></path><path d="M900.6 831.5H123.4c-17.3 0-31.4-14.2-31.4-31.4 0-17.3 14.2-31.4 31.4-31.4h777.1c17.3 0 31.4 14.2 31.4 31.4 0.1 17.2-14.1 31.4-31.3 31.4z" fill="#15B7FF" p-id="9456"></path><path d="M498.040447 162.411943a27.9 27.9 0 1 0 27.876381-48.337847 27.9 27.9 0 1 0-27.876381 48.337847Z" fill="#889CA9" p-id="9457"></path><path d="M932 800c0 8.7-3.5 16.5-9.2 22.2s-13.6 9.2-22.2 9.2H837c8.6 0 16.5-3.5 22.2-9.2s9.2-13.6 9.2-22.2c0-17.3-14.1-31.4-31.4-31.4h63.5c17.3 0 31.5 14.2 31.5 31.4z" fill="#1791FF" p-id="9458"></path><path d="M540 138.3c0 15.4-12.5 27.9-28 27.9-3.7 0-7.3-0.7-10.5-2.1 10.2-4.2 17.4-14.2 17.4-25.9s-7.2-21.7-17.4-25.9c3.2-1.3 6.8-2.1 10.5-2.1 15.4 0.1 28 12.6 28 28.1z" fill="#73859E" p-id="9459"></path><path d="M299.5 584l54.2-116.1h13.8L422.1 584h-30.5l-7.1-15.2H337l-7 15.2h-30.5z m49.3-40.9h23.7l-11.8-25.5-11.9 25.5z" fill="#8ADCFF" p-id="9460"></path><path d="M467.5 584V467.9h51.2c18.6 0 34.4 15.9 34.4 34.5 0 7.9-2.9 15.2-7.4 20.9 7.9 6.3 13.2 16.1 13.2 26.6 0 18.4-15.6 34-34 34h-57.4v0.1z m45.2-70.7c5.6 0 10.1-4.5 10.1-10.1s-4.5-10.1-10.1-10.1H498v20.1h14.7v0.1z m5.7 45.6c5.6 0 10.1-4.5 10.1-10.1s-4.8-10.1-10.1-10.1H498v20.1l20.4 0.1z" fill="#FDF17F" p-id="9461"></path><path d="M681.9 506.3c-4.8-4.8-11.6-7.6-19.5-7.6-15.8 0-27.2 11.5-27.2 27.2 0 15.8 11.5 27.2 27.2 27.2 7.9 0 14.7-2.8 19.5-7.7l21.7 21.4C693 577.3 678.5 584 662.4 584c-32 0-58-26-58-58s26-58 58-58c15.9 0 30.3 6.3 40.9 16.9l-21.4 21.4z" fill="#50E6CC" p-id="9462"></path><path d="M910.4 759.9V291.4c0-22.7-18.4-41.1-41.1-41.1H154.6c-22.5 0-41 18.4-41.1 41.1v468.5C95.4 764.4 82 780.7 82 800.1c0 22.8 18.6 41.4 41.4 41.4h777.2c11 0 21.4-4.3 29.3-12.2 7.8-7.9 12.1-18.2 12-29.2 0-19.4-13.4-35.7-31.5-40.2zM154.6 270.3h714.7c11.6 0 21.1 9.5 21.1 21.1v467.3h-42.1V322.5c0-5.5-4.5-10-10-10H185.7c-5.5 0-10 4.5-10 10v436.2h-42.2V291.5c0.1-11.7 9.5-21.2 21.1-21.2z m241.3 488.4H260.5V733c0-10.5 8.6-19.1 19.1-19.1h97.2c10.5 0 19.1 8.6 19.1 19.1v25.7z m20 0V733c0-21.6-17.5-39.1-39.1-39.1h-97.2c-21.6 0-39.1 17.5-39.1 39.1v25.7h-44.8V332.5h632.6v426.2H415.9z m499.8 56.5c-4.1 4.1-9.4 6.3-15.1 6.3H123.4c-11.8 0-21.4-9.6-21.4-21.4s9.6-21.4 21.4-21.4H182c1.1 0.4 2.4 0.7 3.7 0.7H838.3c1.3 0 2.5-0.3 3.7-0.7h58.5c11.8 0 21.4 9.6 21.4 21.5 0 5.6-2.2 10.9-6.2 15zM499 173.9c4.3 1.5 8.6 2.3 12.9 2.3 15.5 0 30.1-9.6 35.7-25 7.1-19.6-3-41.4-22.7-48.6-9.5-3.5-19.8-3-29 1.3s-16.1 11.9-19.6 21.4c-3.5 9.5-3 19.8 1.3 29s11.9 16.2 21.4 19.6z m-3.9-41.7c1.6-4.5 4.9-8.1 9.3-10.1 2.4-1.1 5-1.7 7.6-1.7 2.1 0 4.1 0.4 6.1 1.1 9.3 3.4 14.1 13.7 10.7 22.9-3.4 9.3-13.7 14.1-22.9 10.7-4.5-1.6-8.1-4.9-10.1-9.3-2.1-4.3-2.3-9.1-0.7-13.6z" fill="#00435B" p-id="9463"></path></svg>